<?xml version="1.0" encoding="UTF-8"?>
<svg width="48px" height="48px" viewBox="0 0 24 24" version="1.1" xmlns="http://www.w3.org/2000/svg">
    <g stroke="none" stroke-width="1" fill="none" fill-rule="evenodd">
        <path d="M5.3125,12 C5.3125,10.3431 5.98438,8.84375 7.07812,7.75 L10.0781,10.75 C9.32812,11.5 8.875,12.5 8.875,13.5 C8.875,14.5 9.32812,15.5 10.0781,16.25 L7.07812,19.25 C5.98438,18.1562 5.3125,16.6569 5.3125,15 C5.3125,13.8438 5.57812,12.75 6.07812,11.75 L5.3125,12 Z" fill="#4285F4"></path>
        <path d="M12,5.3125 C13.6569,5.3125 15.1562,5.98438 16.25,7.07812 L13.25,10.0781 C12.5,9.32812 11.5,8.875 10.5,8.875 C9.5,8.875 8.5,9.32812 7.75,10.0781 L4.75,7.07812 C5.84375,5.98438 7.34375,5.3125 9,5.3125 C10.1562,5.3125 11.25,5.57812 12.25,6.07812 L12,5.3125 Z" fill="#34A853"></path>
        <path d="M12,18.6875 C10.3431,18.6875 8.84375,18.0156 7.75,16.9219 L10.75,13.9219 C11.5,14.6719 12.5,15.125 13.5,15.125 C14.5,15.125 15.5,14.6719 16.25,13.9219 L19.25,16.9219 C18.1562,18.0156 16.6562,18.6875 15,18.6875 C13.8438,18.6875 12.75,18.4219 11.75,17.9219 L12,18.6875 Z" fill="#FBBC05"></path>
        <path d="M18.6875,12 C18.6875,13.6569 18.0156,15.1562 16.9219,16.25 L13.9219,13.25 C14.6719,12.5 15.125,11.5 15.125,10.5 C15.125,9.5 14.6719,8.5 13.9219,7.75 L16.9219,4.75 C18.0156,5.84375 18.6875,7.34375 18.6875,9 C18.6875,10.1562 18.4219,11.25 17.9219,12.25 L18.6875,12 Z" fill="#EA4335"></path>
    </g>
</svg> 